HIERARCHY
ROOT Hips
{
	OFFSET -19.833931 87.443054 21.612974
	CHANNELS 6 Xposition Yposition Zposition Zrotation Yrotation Xrotation 
	JOINT Spine
	{
		OFFSET -0.000000 8.814246 -2.080107
		CHANNELS 3 Zrotation Yrotation Xrotation
		JOINT Spine1
		{
			OFFSET 0.000000 8.844141 0.000000
			CHANNELS 3 Zrotation Yrotation Xrotation
			JOINT Spine2
			{
				OFFSET 0.000000 11.682268 -0.000000
				CHANNELS 3 Zrotation Yrotation Xrotation
				JOINT Spine3
				{
					OFFSET -0.000000 11.746700 -0.000000
					CHANNELS 3 Zrotation Yrotation Xrotation
					JOINT Neck
					{
						OFFSET -0.000000 17.658264 0.000000
						CHANNELS 3 Zrotation Yrotation Xrotation
						JOINT Neck1
						{
							OFFSET -0.000000 5.101515 -0.000000
							CHANNELS 3 Zrotation Yrotation Xrotation
							JOINT Head
							{
								OFFSET 0.000000 5.101515 -0.000000
								CHANNELS 3 Zrotation Yrotation Xrotation
								JOINT HeadEnd
								{
									OFFSET -0.000000 11.655085 -0.000000
									CHANNELS 3 Zrotation Yrotation Xrotation
									End Site
									{
										OFFSET 0.000000 0.000000 0.000000
									}
								}
							}
						}
					}
					JOINT RightShoulder
					{
						OFFSET -2.625389 11.175210 -0.000000
						CHANNELS 3 Zrotation Yrotation Xrotation
						JOINT RightArm
						{
							OFFSET -0.000000 10.434715 0.000000
							CHANNELS 3 Zrotation Yrotation Xrotation
							JOINT RightForeArm
							{
								OFFSET 0.000000 29.628420 -0.000000
								CHANNELS 3 Zrotation Yrotation Xrotation
								JOINT RightHand
								{
									OFFSET 0.000000 22.857611 0.000000
									CHANNELS 3 Zrotation Yrotation Xrotation
									JOINT RightHandThumb1
									{
										OFFSET -2.867323 3.959563 2.944291
										CHANNELS 3 Zrotation Yrotation Xrotation
										JOINT RightHandThumb2
										{
											OFFSET 0.000000 3.350399 0.000000
											CHANNELS 3 Zrotation Yrotation Xrotation
											JOINT RightHandThumb3
											{
												OFFSET -0.000000 3.756509 -0.000000
												CHANNELS 3 Zrotation Yrotation Xrotation
												JOINT RightHandThumb4
												{
													OFFSET -0.000000 3.147345 -0.000000
													CHANNELS 3 Zrotation Yrotation Xrotation
													End Site
													{
														OFFSET 0.000000 0.000000 0.000000
													}
												}
											}
										}
									}
									JOINT RightHandIndex1
									{
										OFFSET -0.086752 10.030893 2.345280
										CHANNELS 3 Zrotation Yrotation Xrotation
										JOINT RightHandIndex2
										{
											OFFSET -0.000000 4.061090 0.000000
											CHANNELS 3 Zrotation Yrotation Xrotation
											JOINT RightHandIndex3
											{
												OFFSET 0.000000 3.248873 0.000000
												CHANNELS 3 Zrotation Yrotation Xrotation
												JOINT RightHandIndex4
												{
													OFFSET 0.000000 2.639709 0.000000
													CHANNELS 3 Zrotation Yrotation Xrotation
													End Site
													{
														OFFSET 0.000000 0.000000 0.000000
													}
												}
											}
										}
									}
									JOINT RightHandMiddle1
									{
										OFFSET 0.104102 9.502952 0.006768
										CHANNELS 3 Zrotation Yrotation Xrotation
										JOINT RightHandMiddle2
										{
											OFFSET -0.000000 4.568727 -0.000000
											CHANNELS 3 Zrotation Yrotation Xrotation
											JOINT RightHandMiddle3
											{
												OFFSET -0.000000 3.654981 0.000000
												CHANNELS 3 Zrotation Yrotation Xrotation
												JOINT RightHandMiddle4
												{
													OFFSET 0.000000 2.741236 0.000000
													CHANNELS 3 Zrotation Yrotation Xrotation
													End Site
													{
														OFFSET 0.000000 0.000000 0.000000
													}
												}
											}
										}
									}
									JOINT RightHandRing1
									{
										OFFSET 0.086752 8.921708 -2.267442
										CHANNELS 3 Zrotation Yrotation Xrotation
										JOINT RightHandRing2
										{
											OFFSET -0.000000 4.061090 -0.000000
											CHANNELS 3 Zrotation Yrotation Xrotation
											JOINT RightHandRing3
											{
												OFFSET 0.000000 3.654981 0.000000
												CHANNELS 3 Zrotation Yrotation Xrotation
												JOINT RightHandRing4
												{
													OFFSET -0.000000 2.741236 -0.000000
													CHANNELS 3 Zrotation Yrotation Xrotation
													End Site
													{
														OFFSET 0.000000 0.000000 0.000000
													}
												}
											}
										}
									}
									JOINT RightHandPinky1
									{
										OFFSET -0.173504 7.976997 -4.467199
										CHANNELS 3 Zrotation Yrotation Xrotation
										JOINT RightHandPinky2
										{
											OFFSET 0.000000 3.350399 0.000000
											CHANNELS 3 Zrotation Yrotation Xrotation
											JOINT RightHandPinky3
											{
												OFFSET 0.000000 2.842763 0.000000
												CHANNELS 3 Zrotation Yrotation Xrotation
												JOINT RightHandPinky4
												{
													OFFSET 0.000000 2.639709 0.000000
													CHANNELS 3 Zrotation Yrotation Xrotation
													End Site
													{
														OFFSET 0.000000 0.000000 0.000000
													}
												}
											}
										}
									}
									JOINT RightForeArmEnd
									{
										OFFSET 0.000000 0.000000 0.000000
										CHANNELS 3 Zrotation Yrotation Xrotation
										End Site
										{
											OFFSET 0.000000 0.000000 0.000000
										}
									}
								}
								JOINT RightArmEnd
								{
									OFFSET 0.000000 0.000000 0.000000
									CHANNELS 3 Zrotation Yrotation Xrotation
									End Site
									{
										OFFSET 0.000000 0.000000 0.000000
									}
								}
							}
						}
					}
					JOINT LeftShoulder
					{
						OFFSET 2.625389 11.175210 -0.000000
						CHANNELS 3 Zrotation Yrotation Xrotation
						JOINT LeftArm
						{
							OFFSET 0.000000 10.813635 0.000000
							CHANNELS 3 Zrotation Yrotation Xrotation
							JOINT LeftForeArm
							{
								OFFSET 0.000000 28.724781 0.000000
								CHANNELS 3 Zrotation Yrotation Xrotation
								JOINT LeftHand
								{
									OFFSET 0.644384 25.716167 -0.328871
									CHANNELS 3 Zrotation Yrotation Xrotation
									JOINT LeftHandThumb1
									{
										OFFSET 2.867323 3.959563 2.944291
										CHANNELS 3 Zrotation Yrotation Xrotation
										JOINT LeftHandThumb2
										{
											OFFSET 0.000000 3.350399 0.000000
											CHANNELS 3 Zrotation Yrotation Xrotation
											JOINT LeftHandThumb3
											{
												OFFSET -0.000000 3.756509 -0.000000
												CHANNELS 3 Zrotation Yrotation Xrotation
												JOINT LeftHandThumb4
												{
													OFFSET -0.000000 3.100000 0.000000
													CHANNELS 3 Zrotation Yrotation Xrotation
													End Site
													{
														OFFSET 0.000000 0.000000 0.000000
													}
												}
											}
										}
									}
									JOINT LeftHandIndex1
									{
										OFFSET 0.086752 10.030893 2.345280
										CHANNELS 3 Zrotation Yrotation Xrotation
										JOINT LeftHandIndex2
										{
											OFFSET -0.000000 4.061090 0.000000
											CHANNELS 3 Zrotation Yrotation Xrotation
											JOINT LeftHandIndex3
											{
												OFFSET 0.000000 3.248873 0.000000
												CHANNELS 3 Zrotation Yrotation Xrotation
												JOINT LeftHandIndex4
												{
													OFFSET -0.000000 2.639709 0.000000
													CHANNELS 3 Zrotation Yrotation Xrotation
													End Site
													{
														OFFSET 0.000000 0.000000 0.000000
													}
												}
											}
										}
									}
									JOINT LeftHandMiddle1
									{
										OFFSET -0.104102 9.502952 0.006768
										CHANNELS 3 Zrotation Yrotation Xrotation
										JOINT LeftHandMiddle2
										{
											OFFSET -0.000000 4.568727 0.000000
											CHANNELS 3 Zrotation Yrotation Xrotation
											JOINT LeftHandMiddle3
											{
												OFFSET 0.000000 3.654981 -0.000000
												CHANNELS 3 Zrotation Yrotation Xrotation
												JOINT LeftHandMiddle4
												{
													OFFSET -0.000000 2.741236 0.000000
													CHANNELS 3 Zrotation Yrotation Xrotation
													End Site
													{
														OFFSET 0.000000 0.000000 0.000000
													}
												}
											}
										}
									}
									JOINT LeftHandRing1
									{
										OFFSET -0.086752 8.921708 -2.267442
										CHANNELS 3 Zrotation Yrotation Xrotation
										JOINT LeftHandRing2
										{
											OFFSET -0.000000 4.061090 0.000000
											CHANNELS 3 Zrotation Yrotation Xrotation
											JOINT LeftHandRing3
											{
												OFFSET 0.000000 3.654981 0.000000
												CHANNELS 3 Zrotation Yrotation Xrotation
												JOINT LeftHandRing4
												{
													OFFSET 0.000000 2.741236 -0.000000
													CHANNELS 3 Zrotation Yrotation Xrotation
													End Site
													{
														OFFSET 0.000000 0.000000 0.000000
													}
												}
											}
										}
									}
									JOINT LeftHandPinky1
									{
										OFFSET 0.173504 7.976997 -4.467199
										CHANNELS 3 Zrotation Yrotation Xrotation
										JOINT LeftHandPinky2
										{
											OFFSET 0.000000 3.350399 -0.000000
											CHANNELS 3 Zrotation Yrotation Xrotation
											JOINT LeftHandPinky3
											{
												OFFSET -0.000000 2.842763 0.000000
												CHANNELS 3 Zrotation Yrotation Xrotation
												JOINT LeftHandPinky4
												{
													OFFSET -0.000000 2.639709 0.000000
													CHANNELS 3 Zrotation Yrotation Xrotation
													End Site
													{
														OFFSET 0.000000 0.000000 0.000000
													}
												}
											}
										}
									}
									JOINT LeftForeArmEnd
									{
										OFFSET 0.000000 0.000000 0.000000
										CHANNELS 3 Zrotation Yrotation Xrotation
										End Site
										{
											OFFSET 0.000000 0.000000 0.000000
										}
									}
								}
								JOINT LeftArmEnd
								{
									OFFSET 0.000000 0.000000 0.000000
									CHANNELS 3 Zrotation Yrotation Xrotation
									End Site
									{
										OFFSET 0.000000 0.000000 0.000000
									}
								}
							}
						}
					}
				}
			}
		}
	}
	JOINT RightUpLeg
	{
		OFFSET -11.289943 0.000000 0.000000
		CHANNELS 3 Zrotation Yrotation Xrotation
		JOINT RightLeg
		{
			OFFSET -0.000000 -38.200325 0.000000
			CHANNELS 3 Zrotation Yrotation Xrotation
			JOINT RightFoot
			{
				OFFSET -0.000000 -39.900856 -0.000000
				CHANNELS 3 Zrotation Yrotation Xrotation
				JOINT RightToeBase
				{
					OFFSET -0.000000 -0.000000 15.261641
					CHANNELS 3 Zrotation Yrotation Xrotation
					JOINT RightToeBaseEnd
					{
						OFFSET -0.000000 0.000000 7.370709
						CHANNELS 3 Zrotation Yrotation Xrotation
						End Site
						{
							OFFSET 0.000000 0.000000 0.000000
						}
					}
				}
				JOINT RightLegEnd
				{
					OFFSET 0.000000 0.000000 0.000000
					CHANNELS 3 Zrotation Yrotation Xrotation
					End Site
					{
						OFFSET 0.000000 0.000000 0.000000
					}
				}
			}
			JOINT RightUpLegEnd
			{
				OFFSET 0.000000 0.000000 0.000000
				CHANNELS 3 Zrotation Yrotation Xrotation
				End Site
				{
					OFFSET 0.000000 0.000000 0.000000
				}
			}
		}
	}
	JOINT LeftUpLeg
	{
		OFFSET 11.315661 0.000000 -0.000000
		CHANNELS 3 Zrotation Yrotation Xrotation
		JOINT LeftLeg
		{
			OFFSET -0.000000 -38.200325 -0.000000
			CHANNELS 3 Zrotation Yrotation Xrotation
			JOINT LeftFoot
			{
				OFFSET 0.000000 -39.900856 -0.000000
				CHANNELS 3 Zrotation Yrotation Xrotation
				JOINT LeftToeBase
				{
					OFFSET 0.000000 -0.000000 15.261641
					CHANNELS 3 Zrotation Yrotation Xrotation
					JOINT LeftToeBaseEnd
					{
						OFFSET 0.000000 -0.000000 7.539996
						CHANNELS 3 Zrotation Yrotation Xrotation
						End Site
						{
							OFFSET 0.000000 0.000000 0.000000
						}
					}
				}
				JOINT LeftLegEnd
				{
					OFFSET 0.000000 0.000000 0.000000
					CHANNELS 3 Zrotation Yrotation Xrotation
					End Site
					{
						OFFSET 0.000000 0.000000 0.000000
					}
				}
			}
			JOINT LeftUpLegEnd
			{
				OFFSET 0.000000 0.000000 0.000000
				CHANNELS 3 Zrotation Yrotation Xrotation
				End Site
				{
					OFFSET 0.000000 0.000000 0.000000
				}
			}
		}
	}
}
MOTION
Frames: 4
Frame Time: 0.016667
4.047863 81.491112 -23.396927 -1.362430 9.646963 11.165419 1.903753 -0.107113 10.833117 0.865912 -0.254944 15.808179 -0.691226 0.439787 15.252543 -1.363767 0.088572 8.613070 4.776860 2.173269 39.429413 -1.024308 1.819588 7.651807 0.773683 3.969249 -22.404535 0.000000 0.000000 -0.000000 92.523827 -0.348115 7.727077 63.638901 -53.028328 -0.449116 -1.604855 14.744526 115.281212 40.303154 42.512775 28.416420 13.035290 -2.000802 38.833199 -0.000000 0.000000 -31.680000 -0.000000 -0.000000 -22.000000 0.000000 -0.000000 0.000000 26.286791 0.000000 -10.088573 18.400753 0.000000 -0.000000 18.400753 -0.000000 0.000000 0.000000 -0.000000 0.000000 27.774527 0.000000 -13.453829 19.442169 0.000000 0.000000 19.442169 -0.000000 -0.000000 -0.000000 -0.000000 0.000000 32.555443 -0.000000 -19.182220 22.788809 0.000000 0.000000 22.788809 0.000000 -0.000000 0.000000 0.000000 0.000000 36.906212 0.000000 -27.277691 25.834349 -0.000000 -0.000000 25.834349 0.000000 -0.000000 -0.000000 -0.000000 -0.000000 -0.000000 -0.000000 0.000000 -0.000000 0.000000 -0.000000 -91.392349 0.185761 6.528062 -58.960060 59.426304 -4.952079 0.351199 -14.862187 111.966949 -25.550222 2.276908 1.049010 -14.235697 2.049091 38.332371 0.000000 0.000000 -34.560001 0.000000 -0.000000 -24.000000 0.000000 -0.000000 0.000000 -37.118431 0.000000 -17.780979 -25.982903 -0.000000 -0.000000 -25.982903 0.000000 0.000000 -0.000000 0.000000 -0.000000 -34.405949 0.000000 -15.578725 -24.084164 -0.000000 -0.000000 -24.084164 -0.000000 0.000000 0.000000 -0.000000 -0.000000 -29.372873 0.000000 -8.607681 -20.561010 0.000000 -0.000000 -20.561010 0.000000 0.000000 -0.000000 0.000000 -0.000000 -22.755148 0.000000 -1.000458 -15.928603 -0.000000 0.000000 -15.928603 0.000000 0.000000 -0.000000 -0.000000 -0.000000 0.000000 -0.000000 -0.000000 -0.000000 -0.000000 -0.000000 -0.617695 5.718686 -36.660374 0.594162 0.446138 53.099300 0.905794 -16.670706 6.692367 2.731546 -1.148291 -32.233418 0.000000 0.000000 -0.000000 0.000000 -0.000000 0.000000 0.000000 -0.000000 0.000000 1.827994 -9.100384 -39.843094 -0.373439 -0.269165 54.217407 3.179759 11.145230 7.624513 -1.835640 1.398831 -32.372345 -0.000000 0.000000 -0.000000 0.000000 0.000000 0.000000 0.000000 -0.000000 0.000000 
4.102410 81.763649 -23.050011 -1.326728 9.630333 10.362032 1.857111 -0.135200 10.802932 0.838593 -0.249855 15.526672 -0.711937 0.436427 15.122186 -1.368201 0.081454 8.612506 4.856015 2.158309 39.179745 -1.054439 1.800805 7.541461 0.751850 3.952099 -22.464733 0.000000 0.000000 -0.000000 92.496841 -0.343101 7.691038 63.523731 -52.949921 -0.294025 -1.601659 14.726828 115.222885 40.254856 43.058762 28.322926 12.735312 -1.985468 38.960350 0.000000 0.000000 -30.959999 0.000000 0.000000 -21.500000 -0.000000 -0.000000 0.000000 26.133593 -0.000000 -10.052580 18.293514 0.000000 0.000000 18.293514 -0.000000 -0.000000 0.000000 0.000000 0.000000 27.680141 -0.000000 -13.459000 19.376099 -0.000000 -0.000000 19.376099 0.000000 0.000000 -0.000000 -0.000000 -0.000000 32.606140 -0.000000 -19.242270 22.824297 -0.000000 0.000000 22.824297 -0.000000 0.000000 0.000000 -0.000000 0.000000 37.160362 -0.000000 -27.419739 26.012253 -0.000000 -0.000000 26.012253 0.000000 0.000000 0.000000 -0.000000 0.000000 0.000000 -0.000000 0.000000 0.000000 0.000000 -0.000000 -91.331818 0.176128 6.421989 -58.599960 59.384815 -4.441252 0.351683 -14.758259 111.768242 -25.531189 2.088000 1.173341 -14.235697 2.049091 38.332371 0.000000 0.000000 -34.560001 -0.000000 -0.000000 -24.000000 0.000000 -0.000000 0.000000 -37.216698 0.000000 -17.364126 -26.051689 0.000000 0.000000 -26.051689 -0.000000 -0.000000 -0.000000 -0.000000 -0.000000 -34.504704 0.000000 -15.319192 -24.153294 0.000000 -0.000000 -24.153294 0.000000 0.000000 0.000000 -0.000000 0.000000 -29.473671 -0.000000 -8.689336 -20.631571 0.000000 -0.000000 -20.631571 0.000000 0.000000 0.000000 0.000000 -0.000000 -22.833437 0.000000 -1.405343 -15.983406 -0.000000 -0.000000 -15.983406 0.000000 0.000000 0.000000 -0.000000 -0.000000 0.000000 -0.000000 -0.000000 -0.000000 -0.000000 0.000000 -0.499690 5.600900 -34.922161 0.525508 0.411813 51.917088 0.828086 -16.558743 6.658535 2.595428 -1.113320 -31.896471 -0.000000 0.000000 0.000000 0.000000 -0.000000 0.000000 0.000000 -0.000000 0.000000 1.558614 -8.905048 -38.064190 -0.314387 -0.236552 53.040882 3.337099 10.971797 7.502959 -1.733983 1.344929 -32.017387 -0.000000 0.000000 -0.000000 0.000000 0.000000 -0.000000 0.000000 -0.000000 0.000000 
4.158998 82.043114 -22.692886 -1.287589 9.598752 9.530162 1.804378 -0.157109 10.793368 0.792543 -0.237541 15.208320 -0.715648 0.411976 14.939554 -1.370112 0.071677 8.616636 4.871616 2.161925 38.896248 -1.067272 1.803376 7.415157 0.746554 3.949733 -22.539436 0.000000 0.000000 -0.000000 92.465210 -0.339028 7.689511 63.448071 -52.881126 -0.195600 -1.600726 14.769819 115.161293 40.235447 43.657463 28.185776 12.735312 -1.985468 38.960350 0.000000 -0.000000 -30.959999 0.000000 0.000000 -21.500000 0.000000 -0.000000 0.000000 26.009232 -0.000000 -9.993639 18.206463 -0.000000 -0.000000 18.206463 0.000000 0.000000 -0.000000 -0.000000 -0.000000 27.611374 0.000000 -13.451260 19.327963 -0.000000 -0.000000 19.327963 0.000000 0.000000 -0.000000 -0.000000 0.000000 32.678558 0.000000 -19.283422 22.874990 -0.000000 -0.000000 22.874990 -0.000000 0.000000 -0.000000 0.000000 0.000000 37.434357 0.000000 -27.513056 26.204048 -0.000000 -0.000000 26.204048 0.000000 0.000000 -0.000000 -0.000000 -0.000000 0.000000 -0.000000 0.000000 0.000000 0.000000 -0.000000 -91.294106 0.168499 6.281802 -58.248352 59.206463 -3.954619 0.352223 -14.503905 111.567909 -25.449770 1.912435 1.230019 -14.235697 2.049091 38.332371 -0.000000 0.000000 -34.560001 0.000000 -0.000000 -24.000000 0.000000 0.000000 0.000000 -37.258518 0.000000 -16.911417 -26.080963 -0.000000 -0.000000 -26.080963 0.000000 -0.000000 -0.000000 -0.000000 0.000000 -34.532700 -0.000000 -14.990956 -24.172890 0.000000 0.000000 -24.172890 -0.000000 -0.000000 0.000000 -0.000000 -0.000000 -29.467115 0.000000 -8.618978 -20.626980 -0.000000 -0.000000 -20.626980 0.000000 -0.000000 0.000000 0.000000 -0.000000 -22.785944 0.000000 -1.581912 -15.950161 -0.000000 0.000000 -15.950161 0.000000 -0.000000 0.000000 0.000000 0.000000 0.000000 -0.000000 -0.000000 0.000000 0.000000 -0.000000 -0.387747 5.488528 -33.105312 0.456037 0.373945 50.649281 0.751040 -16.441715 6.627232 2.446278 -1.077228 -31.524590 -0.000000 0.000000 0.000000 0.000000 -0.000000 0.000000 0.000000 -0.000000 0.000000 1.279401 -8.658012 -36.200317 -0.254933 -0.200772 51.777466 3.510030 10.770264 7.378065 -1.623904 1.287838 -31.630943 -0.000000 0.000000 -0.000000 0.000000 0.000000 -0.000000 0.000000 -0.000000 0.000000 
4.216423 82.330421 -22.328941 -1.253900 9.555200 8.674585 1.745050 -0.175586 10.756259 0.757536 -0.229132 14.911350 -0.713449 0.391709 14.719480 -1.380701 0.068413 8.598596 4.850920 2.141414 38.537834 -1.074353 1.783890 7.257380 0.748189 3.950031 -22.578609 0.000000 0.000000 -0.000000 92.421852 -0.334296 7.709001 63.455318 -52.747189 -0.162517 -1.600096 14.803604 115.076714 40.450684 44.303524 28.212990 12.735312 -1.985468 38.960350 0.000000 -0.000000 -30.959999 -0.000000 0.000000 -21.500000 0.000000 -0.000000 -0.000000 25.752731 -0.000000 -9.987986 18.026911 0.000000 -0.000000 18.026911 -0.000000 -0.000000 0.000000 -0.000000 -0.000000 27.394197 -0.000000 -13.490681 19.175938 -0.000000 -0.000000 19.175938 -0.000000 -0.000000 0.000000 -0.000000 0.000000 32.557007 0.000000 -19.367535 22.789904 -0.000000 -0.000000 22.789904 0.000000 -0.000000 -0.000000 -0.000000 0.000000 37.466545 -0.000000 -27.639874 26.226583 0.000000 -0.000000 26.226583 -0.000000 -0.000000 -0.000000 0.000000 0.000000 -0.000000 -0.000000 0.000000 -0.000000 0.000000 -0.000000 -91.239655 0.159795 6.164444 -57.956524 59.068230 -3.520274 0.353104 -14.277114 111.388557 -25.258387 1.665418 1.141309 -14.235697 2.049091 38.332371 -0.000000 -0.000000 -34.560001 -0.000000 0.000000 -24.000000 0.000000 0.000000 -0.000000 -37.332664 0.000000 -16.382465 -26.132866 -0.000000 0.000000 -26.132866 -0.000000 0.000000 0.000000 -0.000000 -0.000000 -34.599106 0.000000 -14.583525 -24.219376 -0.000000 -0.000000 -24.219376 0.000000 -0.000000 0.000000 -0.000000 -0.000000 -29.519049 0.000000 -8.473912 -20.663334 0.000000 -0.000000 -20.663334 -0.000000 0.000000 0.000000 0.000000 -0.000000 -22.820137 0.000000 -1.700611 -15.974095 -0.000000 0.000000 -15.974095 0.000000 -0.000000 0.000000 0.000000 -0.000000 0.000000 -0.000000 -0.000000 -0.000000 -0.000000 0.000000 -0.273474 5.382829 -31.209198 0.386033 0.332314 49.277096 0.673603 -16.321983 6.607714 2.283022 -1.039723 -31.114166 -0.000000 -0.000000 0.000000 0.000000 -0.000000 0.000000 0.000000 -0.000000 0.000000 1.006847 -8.372767 -34.257305 -0.195884 -0.161950 50.418060 3.692387 10.551495 7.251423 -1.505044 1.227178 -31.208284 -0.000000 0.000000 -0.000000 0.000000 0.000000 -0.000000 0.000000 -0.000000 0.000000 
